<svg width="1629" height="1409" viewBox="0 0 1629 1409" fill="none" xmlns="http://www.w3.org/2000/svg">
<g clip-path="url(#clip0_3_12)">
<g filter="url(#filter0_d_3_12)">
<path d="M1563 627.735C1563 969.9 1227.89 1121 814.5 1121C401.115 1121 66 969.9 66 627.735C66 285.571 401.115 67 814.5 67C1227.89 67 1563 285.571 1563 627.735Z" fill="white"/>
<path d="M1507.5 627.735C1507.5 776.821 1436.22 883.131 1315.4 954.976C1191.73 1028.52 1015.73 1065.5 814.5 1065.5C613.271 1065.5 437.272 1028.52 313.597 954.976C192.776 883.131 121.5 776.821 121.5 627.735C121.5 476.995 194.544 352.637 317.635 264.114C441.793 174.823 616.924 122.5 814.5 122.5C1012.08 122.5 1187.21 174.823 1311.37 264.114C1434.46 352.637 1507.5 476.995 1507.5 627.735Z" stroke="black" stroke-width="111"/>
</g>
<g filter="url(#filter1_d_3_12)">
<mask id="path-3-outside-1_3_12" maskUnits="userSpaceOnUse" x="73" y="58" width="1585" height="909" fill="black">
<rect fill="white" x="73" y="58" width="1585" height="909"/>
<path d="M402.211 129.029C442.263 131.431 475.906 133.433 503.142 135.034C531.178 135.835 554.408 136.636 572.832 137.437C593.659 138.238 611.282 138.238 625.7 137.437C640.119 136.636 659.744 134.634 684.577 131.431C705.404 129.029 733.039 125.425 767.484 120.621C802.73 115.015 846.386 107.808 898.454 99C880.03 117.418 865.611 134.234 855.198 149.448C845.585 163.862 837.975 176.274 832.368 186.684C825.96 199.496 821.554 210.307 819.151 219.115C817.549 227.123 819.151 247.142 823.957 279.172C828.763 311.203 835.572 349.239 844.384 393.282C853.195 436.523 862.808 482.967 873.221 532.615C883.634 581.462 894.048 627.506 904.461 670.747C914.875 713.188 924.087 749.623 932.097 780.052C940.909 809.68 947.317 827.297 951.322 832.902C963.338 849.718 970.948 860.929 974.152 866.534C977.356 871.339 982.963 875.743 990.974 879.747C994.178 881.349 999.384 883.751 1006.59 886.954C1013 890.157 1021.41 894.161 1031.83 898.966C1043.04 903.77 1057.06 909.375 1073.88 915.782C1042.64 917.383 1015.81 918.584 993.377 919.385C970.948 919.385 952.524 919.785 938.105 920.586C921.283 921.387 906.865 922.188 894.849 922.989C882.833 922.989 868.415 923.789 851.593 925.391C837.174 926.992 818.35 928.594 795.12 930.195C772.691 931.797 746.257 933.398 715.817 935C731.838 923.789 744.654 913.78 754.267 904.971C764.68 895.362 772.691 887.354 778.298 880.948C784.706 872.941 789.112 865.734 791.515 859.328C793.117 852.121 794.319 841.31 795.12 826.897C795.921 814.084 795.921 797.268 795.12 776.448C794.319 754.828 792.316 726.801 789.112 692.368L473.103 724.799C465.092 738.412 459.085 750.423 455.079 760.833C451.074 770.443 448.271 778.851 446.668 786.057C444.265 794.866 443.464 802.073 444.265 807.678C445.867 814.084 448.671 821.692 452.676 830.5C456.681 838.508 462.289 848.117 469.498 859.328C477.508 869.738 489.123 882.149 504.343 896.563C484.317 895.762 463.891 895.362 443.064 895.362C422.237 895.362 403.012 895.762 385.389 896.563C364.562 897.364 344.136 898.165 324.11 898.966C304.084 899.766 281.254 900.967 255.621 902.569C233.993 904.171 208.76 906.172 179.923 908.575C150.285 910.176 118.644 912.579 85 915.782C105.827 906.172 123.45 896.563 137.868 886.954C152.287 876.544 164.303 866.935 173.915 858.126C185.13 848.517 194.742 839.308 202.753 830.5C208.36 822.492 219.574 804.075 236.396 775.247C253.218 745.619 272.042 710.785 292.869 670.747C314.497 630.709 336.926 587.868 360.156 542.224C384.188 496.58 405.816 453.739 425.04 413.701C444.265 372.862 459.886 337.628 471.901 308C483.917 278.372 489.924 259.153 489.924 250.345C488.322 239.935 484.317 228.324 477.909 215.511C472.302 204.301 463.49 191.489 451.475 177.075C440.26 162.661 423.839 146.646 402.211 129.029ZM774.693 603.483C769.887 575.456 765.481 551.433 761.476 531.414C757.471 510.594 754.267 493.377 751.864 479.764C748.66 463.749 746.257 449.736 744.654 437.724C742.251 426.513 739.448 412.1 736.244 394.483C733.039 379.268 729.034 360.45 724.228 338.029C720.223 314.807 715.016 287.18 708.608 255.149C662.949 346.437 627.302 417.305 601.669 467.753C576.837 517.4 558.814 553.835 547.599 577.057C533.982 604.284 526.372 620.299 524.77 625.103L774.693 603.483Z"/>
<path d="M1264.93 274.368L1404.31 268.362C1397.9 287.58 1392.69 305.197 1388.69 321.213C1385.48 336.427 1383.08 349.64 1381.48 360.851C1379.08 374.464 1377.87 386.475 1377.87 396.885V431.718C1377.87 442.929 1377.47 455.341 1376.67 468.954C1375.87 482.567 1375.07 497.381 1374.27 513.397C1403.11 512.596 1427.54 511.795 1447.56 510.994C1468.39 510.193 1485.61 509.793 1499.23 509.793H1537.68C1547.29 509.793 1556.91 509.393 1566.52 508.592C1575.33 507.791 1584.54 506.99 1594.15 506.19C1604.57 504.588 1614.58 502.186 1624.19 498.983L1629 601.08C1611.38 599.479 1595.36 598.678 1580.94 598.678C1567.32 598.678 1555.3 598.278 1544.89 597.477C1532.88 597.477 1522.06 597.077 1512.45 596.276H1476.4C1464.39 596.276 1449.57 596.676 1431.94 597.477C1415.12 598.278 1395.1 599.079 1371.87 599.879C1370.26 613.492 1369.06 626.305 1368.26 638.316C1368.26 650.328 1368.66 661.138 1369.46 670.747C1369.46 681.958 1370.26 692.368 1371.87 701.977C1372.67 712.387 1374.27 724.398 1376.67 738.011C1378.28 750.023 1380.28 764.437 1382.68 781.253C1385.89 798.069 1389.49 818.088 1393.49 841.31H1262.53C1265.73 819.69 1268.13 800.471 1269.73 783.655C1272.14 766.038 1274.14 751.625 1275.74 740.414C1277.34 726.801 1278.55 714.789 1279.35 704.379C1280.15 691.567 1280.95 678.755 1281.75 665.943C1282.55 654.732 1282.95 643.121 1282.95 631.109C1282.95 618.297 1282.55 606.285 1281.75 595.075C1261.72 594.274 1243.7 594.274 1227.68 595.075C1212.46 595.075 1199.24 595.475 1188.03 596.276C1175.21 597.077 1164 597.877 1154.39 598.678C1144.77 600.28 1133.96 601.481 1121.94 602.282C1111.53 603.883 1099.11 605.084 1084.69 605.885C1070.28 605.885 1054.66 606.686 1037.83 608.287L1029.42 509.793C1051.05 511.395 1069.88 512.596 1085.9 513.397C1102.72 514.197 1116.74 514.598 1127.95 514.598H1291.36C1291.36 493.778 1290.96 475.761 1290.16 460.546C1290.16 444.531 1289.76 431.318 1288.96 420.908C1288.16 408.897 1287.36 399.287 1286.56 392.08C1285.76 384.073 1284.15 374.464 1281.75 363.253C1280.15 353.644 1277.75 341.632 1274.54 327.218C1272.14 312.004 1268.93 294.387 1264.93 274.368Z"/>
</mask>
<path d="M402.211 129.029C442.263 131.431 475.906 133.433 503.142 135.034C531.178 135.835 554.408 136.636 572.832 137.437C593.659 138.238 611.282 138.238 625.7 137.437C640.119 136.636 659.744 134.634 684.577 131.431C705.404 129.029 733.039 125.425 767.484 120.621C802.73 115.015 846.386 107.808 898.454 99C880.03 117.418 865.611 134.234 855.198 149.448C845.585 163.862 837.975 176.274 832.368 186.684C825.96 199.496 821.554 210.307 819.151 219.115C817.549 227.123 819.151 247.142 823.957 279.172C828.763 311.203 835.572 349.239 844.384 393.282C853.195 436.523 862.808 482.967 873.221 532.615C883.634 581.462 894.048 627.506 904.461 670.747C914.875 713.188 924.087 749.623 932.097 780.052C940.909 809.68 947.317 827.297 951.322 832.902C963.338 849.718 970.948 860.929 974.152 866.534C977.356 871.339 982.963 875.743 990.974 879.747C994.178 881.349 999.384 883.751 1006.59 886.954C1013 890.157 1021.41 894.161 1031.83 898.966C1043.04 903.77 1057.06 909.375 1073.88 915.782C1042.64 917.383 1015.81 918.584 993.377 919.385C970.948 919.385 952.524 919.785 938.105 920.586C921.283 921.387 906.865 922.188 894.849 922.989C882.833 922.989 868.415 923.789 851.593 925.391C837.174 926.992 818.35 928.594 795.12 930.195C772.691 931.797 746.257 933.398 715.817 935C731.838 923.789 744.654 913.78 754.267 904.971C764.68 895.362 772.691 887.354 778.298 880.948C784.706 872.941 789.112 865.734 791.515 859.328C793.117 852.121 794.319 841.31 795.12 826.897C795.921 814.084 795.921 797.268 795.12 776.448C794.319 754.828 792.316 726.801 789.112 692.368L473.103 724.799C465.092 738.412 459.085 750.423 455.079 760.833C451.074 770.443 448.271 778.851 446.668 786.057C444.265 794.866 443.464 802.073 444.265 807.678C445.867 814.084 448.671 821.692 452.676 830.5C456.681 838.508 462.289 848.117 469.498 859.328C477.508 869.738 489.123 882.149 504.343 896.563C484.317 895.762 463.891 895.362 443.064 895.362C422.237 895.362 403.012 895.762 385.389 896.563C364.562 897.364 344.136 898.165 324.11 898.966C304.084 899.766 281.254 900.967 255.621 902.569C233.993 904.171 208.76 906.172 179.923 908.575C150.285 910.176 118.644 912.579 85 915.782C105.827 906.172 123.45 896.563 137.868 886.954C152.287 876.544 164.303 866.935 173.915 858.126C185.13 848.517 194.742 839.308 202.753 830.5C208.36 822.492 219.574 804.075 236.396 775.247C253.218 745.619 272.042 710.785 292.869 670.747C314.497 630.709 336.926 587.868 360.156 542.224C384.188 496.58 405.816 453.739 425.04 413.701C444.265 372.862 459.886 337.628 471.901 308C483.917 278.372 489.924 259.153 489.924 250.345C488.322 239.935 484.317 228.324 477.909 215.511C472.302 204.301 463.49 191.489 451.475 177.075C440.26 162.661 423.839 146.646 402.211 129.029ZM774.693 603.483C769.887 575.456 765.481 551.433 761.476 531.414C757.471 510.594 754.267 493.377 751.864 479.764C748.66 463.749 746.257 449.736 744.654 437.724C742.251 426.513 739.448 412.1 736.244 394.483C733.039 379.268 729.034 360.45 724.228 338.029C720.223 314.807 715.016 287.18 708.608 255.149C662.949 346.437 627.302 417.305 601.669 467.753C576.837 517.4 558.814 553.835 547.599 577.057C533.982 604.284 526.372 620.299 524.77 625.103L774.693 603.483Z" fill="black"/>
<path d="M1264.93 274.368L1404.31 268.362C1397.9 287.58 1392.69 305.197 1388.69 321.213C1385.48 336.427 1383.08 349.64 1381.48 360.851C1379.08 374.464 1377.87 386.475 1377.87 396.885V431.718C1377.87 442.929 1377.47 455.341 1376.67 468.954C1375.87 482.567 1375.07 497.381 1374.27 513.397C1403.11 512.596 1427.54 511.795 1447.56 510.994C1468.39 510.193 1485.61 509.793 1499.23 509.793H1537.68C1547.29 509.793 1556.91 509.393 1566.52 508.592C1575.33 507.791 1584.54 506.99 1594.15 506.19C1604.57 504.588 1614.58 502.186 1624.19 498.983L1629 601.08C1611.38 599.479 1595.36 598.678 1580.94 598.678C1567.32 598.678 1555.3 598.278 1544.89 597.477C1532.88 597.477 1522.06 597.077 1512.45 596.276H1476.4C1464.39 596.276 1449.57 596.676 1431.94 597.477C1415.12 598.278 1395.1 599.079 1371.87 599.879C1370.26 613.492 1369.06 626.305 1368.26 638.316C1368.26 650.328 1368.66 661.138 1369.46 670.747C1369.46 681.958 1370.26 692.368 1371.87 701.977C1372.67 712.387 1374.27 724.398 1376.67 738.011C1378.28 750.023 1380.28 764.437 1382.68 781.253C1385.89 798.069 1389.49 818.088 1393.49 841.31H1262.53C1265.73 819.69 1268.13 800.471 1269.73 783.655C1272.14 766.038 1274.14 751.625 1275.74 740.414C1277.34 726.801 1278.55 714.789 1279.35 704.379C1280.15 691.567 1280.95 678.755 1281.75 665.943C1282.55 654.732 1282.95 643.121 1282.95 631.109C1282.95 618.297 1282.55 606.285 1281.75 595.075C1261.72 594.274 1243.7 594.274 1227.68 595.075C1212.46 595.075 1199.24 595.475 1188.03 596.276C1175.21 597.077 1164 597.877 1154.39 598.678C1144.77 600.28 1133.96 601.481 1121.94 602.282C1111.53 603.883 1099.11 605.084 1084.69 605.885C1070.28 605.885 1054.66 606.686 1037.83 608.287L1029.42 509.793C1051.05 511.395 1069.88 512.596 1085.9 513.397C1102.72 514.197 1116.74 514.598 1127.95 514.598H1291.36C1291.36 493.778 1290.96 475.761 1290.16 460.546C1290.16 444.531 1289.76 431.318 1288.96 420.908C1288.16 408.897 1287.36 399.287 1286.56 392.08C1285.76 384.073 1284.15 374.464 1281.75 363.253C1280.15 353.644 1277.75 341.632 1274.54 327.218C1272.14 312.004 1268.93 294.387 1264.93 274.368Z" fill="black"/>
<path d="M402.211 129.029C442.263 131.431 475.906 133.433 503.142 135.034C531.178 135.835 554.408 136.636 572.832 137.437C593.659 138.238 611.282 138.238 625.7 137.437C640.119 136.636 659.744 134.634 684.577 131.431C705.404 129.029 733.039 125.425 767.484 120.621C802.73 115.015 846.386 107.808 898.454 99C880.03 117.418 865.611 134.234 855.198 149.448C845.585 163.862 837.975 176.274 832.368 186.684C825.96 199.496 821.554 210.307 819.151 219.115C817.549 227.123 819.151 247.142 823.957 279.172C828.763 311.203 835.572 349.239 844.384 393.282C853.195 436.523 862.808 482.967 873.221 532.615C883.634 581.462 894.048 627.506 904.461 670.747C914.875 713.188 924.087 749.623 932.097 780.052C940.909 809.68 947.317 827.297 951.322 832.902C963.338 849.718 970.948 860.929 974.152 866.534C977.356 871.339 982.963 875.743 990.974 879.747C994.178 881.349 999.384 883.751 1006.59 886.954C1013 890.157 1021.41 894.161 1031.83 898.966C1043.04 903.77 1057.06 909.375 1073.88 915.782C1042.64 917.383 1015.81 918.584 993.377 919.385C970.948 919.385 952.524 919.785 938.105 920.586C921.283 921.387 906.865 922.188 894.849 922.989C882.833 922.989 868.415 923.789 851.593 925.391C837.174 926.992 818.35 928.594 795.12 930.195C772.691 931.797 746.257 933.398 715.817 935C731.838 923.789 744.654 913.78 754.267 904.971C764.68 895.362 772.691 887.354 778.298 880.948C784.706 872.941 789.112 865.734 791.515 859.328C793.117 852.121 794.319 841.31 795.12 826.897C795.921 814.084 795.921 797.268 795.12 776.448C794.319 754.828 792.316 726.801 789.112 692.368L473.103 724.799C465.092 738.412 459.085 750.423 455.079 760.833C451.074 770.443 448.271 778.851 446.668 786.057C444.265 794.866 443.464 802.073 444.265 807.678C445.867 814.084 448.671 821.692 452.676 830.5C456.681 838.508 462.289 848.117 469.498 859.328C477.508 869.738 489.123 882.149 504.343 896.563C484.317 895.762 463.891 895.362 443.064 895.362C422.237 895.362 403.012 895.762 385.389 896.563C364.562 897.364 344.136 898.165 324.11 898.966C304.084 899.766 281.254 900.967 255.621 902.569C233.993 904.171 208.76 906.172 179.923 908.575C150.285 910.176 118.644 912.579 85 915.782C105.827 906.172 123.45 896.563 137.868 886.954C152.287 876.544 164.303 866.935 173.915 858.126C185.13 848.517 194.742 839.308 202.753 830.5C208.36 822.492 219.574 804.075 236.396 775.247C253.218 745.619 272.042 710.785 292.869 670.747C314.497 630.709 336.926 587.868 360.156 542.224C384.188 496.58 405.816 453.739 425.04 413.701C444.265 372.862 459.886 337.628 471.901 308C483.917 278.372 489.924 259.153 489.924 250.345C488.322 239.935 484.317 228.324 477.909 215.511C472.302 204.301 463.49 191.489 451.475 177.075C440.26 162.661 423.839 146.646 402.211 129.029ZM774.693 603.483C769.887 575.456 765.481 551.433 761.476 531.414C757.471 510.594 754.267 493.377 751.864 479.764C748.66 463.749 746.257 449.736 744.654 437.724C742.251 426.513 739.448 412.1 736.244 394.483C733.039 379.268 729.034 360.45 724.228 338.029C720.223 314.807 715.016 287.18 708.608 255.149C662.949 346.437 627.302 417.305 601.669 467.753C576.837 517.4 558.814 553.835 547.599 577.057C533.982 604.284 526.372 620.299 524.77 625.103L774.693 603.483Z" stroke="#FFFF50" stroke-width="54" mask="url(#path-3-outside-1_3_12)"/>
<path d="M1264.93 274.368L1404.31 268.362C1397.9 287.58 1392.69 305.197 1388.69 321.213C1385.48 336.427 1383.08 349.64 1381.48 360.851C1379.08 374.464 1377.87 386.475 1377.87 396.885V431.718C1377.87 442.929 1377.47 455.341 1376.67 468.954C1375.87 482.567 1375.07 497.381 1374.27 513.397C1403.11 512.596 1427.54 511.795 1447.56 510.994C1468.39 510.193 1485.61 509.793 1499.23 509.793H1537.68C1547.29 509.793 1556.91 509.393 1566.52 508.592C1575.33 507.791 1584.54 506.99 1594.15 506.19C1604.57 504.588 1614.58 502.186 1624.19 498.983L1629 601.08C1611.38 599.479 1595.36 598.678 1580.94 598.678C1567.32 598.678 1555.3 598.278 1544.89 597.477C1532.88 597.477 1522.06 597.077 1512.45 596.276H1476.4C1464.39 596.276 1449.57 596.676 1431.94 597.477C1415.12 598.278 1395.1 599.079 1371.87 599.879C1370.26 613.492 1369.06 626.305 1368.26 638.316C1368.26 650.328 1368.66 661.138 1369.46 670.747C1369.46 681.958 1370.26 692.368 1371.87 701.977C1372.67 712.387 1374.27 724.398 1376.67 738.011C1378.28 750.023 1380.28 764.437 1382.68 781.253C1385.89 798.069 1389.49 818.088 1393.49 841.31H1262.53C1265.73 819.69 1268.13 800.471 1269.73 783.655C1272.14 766.038 1274.14 751.625 1275.74 740.414C1277.34 726.801 1278.55 714.789 1279.35 704.379C1280.15 691.567 1280.95 678.755 1281.75 665.943C1282.55 654.732 1282.95 643.121 1282.95 631.109C1282.95 618.297 1282.55 606.285 1281.75 595.075C1261.72 594.274 1243.7 594.274 1227.68 595.075C1212.46 595.075 1199.24 595.475 1188.03 596.276C1175.21 597.077 1164 597.877 1154.39 598.678C1144.77 600.28 1133.96 601.481 1121.94 602.282C1111.53 603.883 1099.11 605.084 1084.69 605.885C1070.28 605.885 1054.66 606.686 1037.83 608.287L1029.42 509.793C1051.05 511.395 1069.88 512.596 1085.9 513.397C1102.72 514.197 1116.74 514.598 1127.95 514.598H1291.36C1291.36 493.778 1290.96 475.761 1290.16 460.546C1290.16 444.531 1289.76 431.318 1288.96 420.908C1288.16 408.897 1287.36 399.287 1286.56 392.08C1285.76 384.073 1284.15 374.464 1281.75 363.253C1280.15 353.644 1277.75 341.632 1274.54 327.218C1272.14 312.004 1268.93 294.387 1264.93 274.368Z" stroke="#FFFF50" stroke-width="54" mask="url(#path-3-outside-1_3_12)"/>
</g>
</g>
<defs>
<filter id="filter0_d_3_12" x="66" y="67" width="1543" height="1089" filterUnits="userSpaceOnUse" color-interpolation-filters="sRGB">
<feFlood flood-opacity="0" result="BackgroundImageFix"/>
<feColorMatrix in="SourceAlpha" type="matrix" values="0 0 0 0 0 0 0 0 0 0 0 0 0 0 0 0 0 0 127 0" result="hardAlpha"/>
<feOffset dx="42" dy="31"/>
<feGaussianBlur stdDeviation="2"/>
<feComposite in2="hardAlpha" operator="out"/>
<feColorMatrix type="matrix" values="0 0 0 0 1 0 0 0 0 1 0 0 0 0 1 0 0 0 1 0"/>
<feBlend mode="normal" in2="BackgroundImageFix" result="effect1_dropShadow_3_12"/>
<feBlend mode="normal" in="SourceGraphic" in2="effect1_dropShadow_3_12" result="shape"/>
</filter>
<filter id="filter1_d_3_12" x="73.6885" y="58.2614" width="1662.74" height="982.653" filterUnits="userSpaceOnUse" color-interpolation-filters="sRGB">
<feFlood flood-opacity="0" result="BackgroundImageFix"/>
<feColorMatrix in="SourceAlpha" type="matrix" values="0 0 0 0 0 0 0 0 0 0 0 0 0 0 0 0 0 0 127 0" result="hardAlpha"/>
<feOffset dx="61" dy="56"/>
<feGaussianBlur stdDeviation="9"/>
<feComposite in2="hardAlpha" operator="out"/>
<feColorMatrix type="matrix" values="0 0 0 0 0.243137 0 0 0 0 0.8 0 0 0 0 0.372549 0 0 0 1 0"/>
<feBlend mode="normal" in2="BackgroundImageFix" result="effect1_dropShadow_3_12"/>
<feBlend mode="normal" in="SourceGraphic" in2="effect1_dropShadow_3_12" result="shape"/>
</filter>
<clipPath id="clip0_3_12">
<rect width="1629" height="1409" fill="white"/>
</clipPath>
</defs>
</svg>
